HIERARCHY
ROOT reference
{
  OFFSET -65.3212 -1.93545 -120.338
  CHANNELS 6 Xposition Yposition Zposition Zrotation Xrotation Yrotation
  JOINT Hips
  {
    OFFSET 0 78.7191 0
    CHANNELS 3 Zrotation Xrotation Yrotation
    JOINT Chest
    {
      OFFSET 0 8.7983 -4.7612
      CHANNELS 3 Zrotation Xrotation Yrotation
      JOINT Chest2
      {
        OFFSET 0 8.0291 0.4195
        CHANNELS 3 Zrotation Xrotation Yrotation
        JOINT Chest3
        {
          OFFSET 0 9.9351 -2.2114
          CHANNELS 3 Zrotation Xrotation Yrotation
          JOINT Neck
          {
            OFFSET 0 22.3885 -0.4656
            CHANNELS 3 Zrotation Xrotation Yrotation
            JOINT Head
            {
              OFFSET -0.0001 12.643 3.4389
              CHANNELS 3 Zrotation Xrotation Yrotation
              End Site
              {
                OFFSET 0.0001 17.6655 0.5274
              }
            }
          }
          JOINT LeftCollar
          {
            OFFSET 2.2603 21.606 7.4023
            CHANNELS 3 Zrotation Xrotation Yrotation
            JOINT LeftShoulder
            {
              OFFSET 13.5163 -1.1332 -5.0146
              CHANNELS 3 Zrotation Xrotation Yrotation
              JOINT LeftElbow
              {
                OFFSET -0.0995 -28.05 -0.2431
                CHANNELS 3 Zrotation Xrotation Yrotation
                JOINT LeftWrist
                {
                  OFFSET 0.0679 -23.3996 -0.1402
                  CHANNELS 3 Zrotation Xrotation Yrotation
                  JOINT LeftFinger1
                  {
                    OFFSET 0.7932 -9.069 2.5189
                    CHANNELS 3 Zrotation Xrotation Yrotation
                    JOINT LeftFinger11
                    {
                      OFFSET -0.8272 -3.3923 0.5977
                      CHANNELS 3 Zrotation Xrotation Yrotation
                      JOINT LeftFinger12
                      {
                        OFFSET -0.5649 -2.3158 0.4082
                        CHANNELS 3 Zrotation Xrotation Yrotation
                        End Site
                        {
                          OFFSET -0.4919 -1.6479 0.2673
                        }
                      }
                    }
                  }
                  JOINT LeftFinger2
                  {
                    OFFSET 0.9159 -9.2044 0.2193
                    CHANNELS 3 Zrotation Xrotation Yrotation
                    JOINT LeftFinger21
                    {
                      OFFSET 0.0117 -4.1944 -0.0248
                      CHANNELS 3 Zrotation Xrotation Yrotation
                      JOINT LeftFinger22
                      {
                        OFFSET 0.0071 -2.3249 -0.0142
                        CHANNELS 3 Zrotation Xrotation Yrotation
                        End Site
                        {
                          OFFSET -0.1475 -2.0882 0.0028
                        }
                      }
                    }
                  }
                  JOINT LeftFinger3
                  {
                    OFFSET 0.6113 -8.7231 -2.0637
                    CHANNELS 3 Zrotation Xrotation Yrotation
                    JOINT LeftFinger31
                    {
                      OFFSET -0.1927 -3.8059 -0.2383
                      CHANNELS 3 Zrotation Xrotation Yrotation
                      JOINT LeftFinger32
                      {
                        OFFSET -0.1091 -2.1688 -0.1362
                        CHANNELS 3 Zrotation Xrotation Yrotation
                        End Site
                        {
                          OFFSET -0.2358 -1.9176 -0.0906
                        }
                      }
                    }
                  }
                  JOINT LeftFinger4
                  {
                    OFFSET -0.6151 -8.0947 -3.5641
                    CHANNELS 3 Zrotation Xrotation Yrotation
                    JOINT LeftFinger41
                    {
                      OFFSET -0.4882 -2.341 -0.6462
                      CHANNELS 3 Zrotation Xrotation Yrotation
                      JOINT LeftFinger42
                      {
                        OFFSET -0.3575 -1.7167 -0.4742
                        CHANNELS 3 Zrotation Xrotation Yrotation
                        End Site
                        {
                          OFFSET -0.4187 -1.5237 -0.3496
                        }
                      }
                    }
                  }
                  JOINT LeftFinger0
                  {
                    OFFSET -1.42 -1.8761 1.4223
                    CHANNELS 3 Zrotation Xrotation Yrotation
                    JOINT LeftFinger01
                    {
                      OFFSET -1.1471 -3.4929 2.6334
                      CHANNELS 3 Zrotation Xrotation Yrotation
                      JOINT LeftFinger02
                      {
                        OFFSET -0.823 -2.3 1.6571
                        CHANNELS 3 Zrotation Xrotation Yrotation
                        End Site
                        {
                          OFFSET -0.5822 -1.6914 1.1582
                        }
                      }
                    }
                  }
                }
              }
            }
          }
          JOINT RightCollar
          {
            OFFSET -2.2603 21.606 7.4023
            CHANNELS 3 Zrotation Xrotation Yrotation
            JOINT RightShoulder
            {
              OFFSET -13.5187 -1.1334 -5.0155
              CHANNELS 3 Zrotation Xrotation Yrotation
              JOINT RightElbow
              {
                OFFSET 0.0994 -28.0499 -0.2431
                CHANNELS 3 Zrotation Xrotation Yrotation
                JOINT RightWrist
                {
                  OFFSET -0.0679 -23.3996 -0.1402
                  CHANNELS 3 Zrotation Xrotation Yrotation
                  JOINT RightFinger1
                  {
                    OFFSET -0.7932 -9.0691 2.5189
                    CHANNELS 3 Zrotation Xrotation Yrotation
                    JOINT RightFinger11
                    {
                      OFFSET 0.8272 -3.3923 0.5977
                      CHANNELS 3 Zrotation Xrotation Yrotation
                      JOINT RightFinger12
                      {
                        OFFSET 0.565 -2.3158 0.4082
                        CHANNELS 3 Zrotation Xrotation Yrotation
                        End Site
                        {
                          OFFSET 0.4919 -1.6479 0.2673
                        }
                      }
                    }
                  }
                  JOINT RightFinger2
                  {
                    OFFSET -0.916 -9.2044 0.2193
                    CHANNELS 3 Zrotation Xrotation Yrotation
                    JOINT RightFinger21
                    {
                      OFFSET -0.0117 -4.1944 -0.0248
                      CHANNELS 3 Zrotation Xrotation Yrotation
                      JOINT RightFinger22
                      {
                        OFFSET -0.0071 -2.3249 -0.0142
                        CHANNELS 3 Zrotation Xrotation Yrotation
                        End Site
                        {
                          OFFSET 0.1475 -2.0882 0.0028
                        }
                      }
                    }
                  }
                  JOINT RightFinger3
                  {
                    OFFSET -0.6113 -8.7231 -2.0637
                    CHANNELS 3 Zrotation Xrotation Yrotation
                    JOINT RightFinger31
                    {
                      OFFSET 0.1927 -3.8059 -0.2383
                      CHANNELS 3 Zrotation Xrotation Yrotation
                      JOINT RightFinger32
                      {
                        OFFSET 0.1091 -2.1688 -0.1362
                        CHANNELS 3 Zrotation Xrotation Yrotation
                        End Site
                        {
                          OFFSET 0.2358 -1.9176 -0.0906
                        }
                      }
                    }
                  }
                  JOINT RightFinger4
                  {
                    OFFSET 0.6151 -8.0947 -3.564
                    CHANNELS 3 Zrotation Xrotation Yrotation
                    JOINT RightFinger41
                    {
                      OFFSET 0.4882 -2.341 -0.6462
                      CHANNELS 3 Zrotation Xrotation Yrotation
                      JOINT RightFinger42
                      {
                        OFFSET 0.3574 -1.7166 -0.4742
                        CHANNELS 3 Zrotation Xrotation Yrotation
                        End Site
                        {
                          OFFSET 0.4187 -1.5237 -0.3496
                        }
                      }
                    }
                  }
                  JOINT RightFinger0
                  {
                    OFFSET 1.4199 -1.8761 1.4221
                    CHANNELS 3 Zrotation Xrotation Yrotation
                    JOINT RightFinger01
                    {
                      OFFSET 1.1472 -3.4929 2.6336
                      CHANNELS 3 Zrotation Xrotation Yrotation
                      JOINT RightFinger02
                      {
                        OFFSET 0.8229 -2.3 1.6571
                        CHANNELS 3 Zrotation Xrotation Yrotation
                        End Site
                        {
                          OFFSET 0.5822 -1.6914 1.1582
                        }
                      }
                    }
                  }
                }
              }
            }
          }
        }
      }
    }
    JOINT RightHip
    {
      OFFSET -9.412 3.9771 -0.7758
      CHANNELS 3 Zrotation Xrotation Yrotation
      JOINT RightKnee
      {
        OFFSET -0.7531 -40.938 0
        CHANNELS 3 Zrotation Xrotation Yrotation
        JOINT RightAnkle
        {
          OFFSET 0 -40.1986 0
          CHANNELS 3 Zrotation Xrotation Yrotation
          JOINT RightToe
          {
            OFFSET 0 -4.4182 9.239
            CHANNELS 3 Zrotation Xrotation Yrotation
            End Site
            {
              OFFSET 0 0 6.1981
            }
          }
        }
      }
    }
    JOINT LeftHip
    {
      OFFSET 9.4119 3.9773 -0.7758
      CHANNELS 3 Zrotation Xrotation Yrotation
      JOINT LeftKnee
      {
        OFFSET 0.7532 -40.9383 0
        CHANNELS 3 Zrotation Xrotation Yrotation
        JOINT LeftAnkle
        {
          OFFSET 0 -40.1986 0
          CHANNELS 3 Zrotation Xrotation Yrotation
          JOINT LeftToe
          {
            OFFSET 0 -4.4182 9.239
            CHANNELS 3 Zrotation Xrotation Yrotation
            End Site
            {
              OFFSET 0 0 6.1981
            }
          }
        }
      }
    }
  }
}
MOTION
Frames:	4
Frame Time:	0.0333333
-0.998036 -6.49969 13.8887 0 0 -0 -2.24184 27.764 -1.05314 2.59595 3.81065 -0.823529 5.26401 7.5795 -1.82564 5.26402 7.5795 -1.82564 -11.4147 21.2985 -6.61837 9.3488 7.23514 -6.20093 2.74911 3.42235 -0.17584 18.4959 14.4481 9.77878 -67.5573 6.68614 -51.5007 -3.2339 -19.058 -40.1248 -12.2213 16.3768 -2.83228 -9.08007 5.65881 -0.0387844 -11.2228 6.98221 0.0831809 -9.23505 7.4079 -3.3563 -12.8859 8.13551 -0.355596 -8.98218 5.67283 -0.442004 -8.12182 5.10729 -0.194091 -12.2211 8.52523 -0.716666 -8.43175 5.87309 -0.689458 -9.10712 4.15689 0.119793 -10.2366 7.06713 -1.07907 -8.63262 5.94812 -0.993248 4.37667 9.54332 -2.53567 -1.00099 -0.669882 0.209733 3.07527 4.00959 -0.947324 2.59598 -1.15531 -8.63406 -12.0556 25.1755 -14.9641 53.7607 8.38296 62.8716 -25.0415 -16.97 50.1634 4.70886 8.26434 4.61935 -0.0288931 -0.245971 0.281798 1.12377 0.384247 -0.0218858 -5.19886 -1.67261 2.91522 0.0705868 -0.32397 -0.0573727 -6.44771 -2.17774 -0.276387 -11.1628 -4.38956 -1.65126 0.200395 -1.23593 -0.619281 -10.5525 -3.97208 -0.962295 -10.6145 -4.96596 -2.97513 -0.273839 -1.27523 -2.46716 -10.3549 -3.74352 -1.21776 -9.46348 10.6392 2.32309 -0.280353 0.642912 0.203248 -3.26435 7.0992 2.45128 9.68071 -42.0327 37.0361 12.7639 41.4318 -5.12958 -6.70917 -27.0018 4.92322 0.000108709 -1.6668e-005 -2.49035e-005 -4.55323 -44.2197 -28.9808 -1.49003 46.3329 -0.429502 -0.250234 -28.8086 -0.448195 -2.88495e-005 -1.94177e-005 3.02425e-006 
-0.947569 -6.32296 13.9794 0 0 -0 -2.40675 27.5562 -0.849038 2.3195 3.4318 -0.538547 4.68382 6.83875 -1.21935 4.68383 6.83874 -1.21935 -9.68393 21.5808 -7.92992 10.611 10.0381 -7.70123 2.74911 3.42236 -0.175862 20.2995 14.8545 9.93794 -69.7605 7.29196 -52.0836 -2.93157 -16.7362 -38.896 -12.2213 16.3768 -2.83225 -9.08003 5.65885 -0.0386516 -11.2228 6.98232 0.0834067 -9.23505 7.40786 -3.35619 -12.8858 8.13562 -0.355626 -8.98221 5.67276 -0.442191 -8.12183 5.10726 -0.19397 -12.221 8.52536 -0.716559 -8.43179 5.87302 -0.689602 -9.10712 4.15688 0.119843 -10.2365 7.06727 -1.0789 -8.63265 5.94807 -0.993369 4.37668 9.54332 -2.53566 -1.00101 -0.669881 0.209775 3.07524 4.00958 -0.94732 2.31887 -0.974898 -8.48618 -10.9956 24.6515 -18.5669 54.0422 8.4697 71.7743 -26.3274 -15.6438 46.4848 4.70884 8.26433 4.61935 -0.0287979 -0.245951 0.28183 1.12377 0.384238 -0.0218888 -5.19887 -1.67262 2.91521 0.0706267 -0.323961 -0.057348 -6.44774 -2.17772 -0.276406 -11.1628 -4.38956 -1.65119 0.20041 -1.23594 -0.619281 -10.5525 -3.97208 -0.962291 -10.6145 -4.96598 -2.97511 -0.273878 -1.27524 -2.46715 -10.3549 -3.74353 -1.21775 -9.46346 10.6392 2.32298 -0.280371 0.642907 0.203267 -3.26437 7.09917 2.45135 9.655 -41.3844 36.8951 12.1172 40.7682 -4.72442 -6.30576 -26.8275 4.88814 0.000120857 -1.07575e-005 -3.40274e-006 -4.24769 -43.7515 -28.7418 -1.54561 45.7022 -0.527592 -0.120006 -28.4826 -0.499914 -5.62578e-006 -1.0179e-005 6.04852e-006 
-0.87952 -6.13425 14.0923 0 0 -0 -2.58302 27.3229 -0.634918 2.00324 2.9887 -0.219518 4.02616 5.96787 -0.544794 4.02617 5.96789 -0.544797 -7.86286 21.7857 -9.28533 11.8345 12.3 -9.18896 2.74913 3.42237 -0.175862 22.2512 15.2696 10.0556 -72.2231 7.92701 -52.6595 -2.66172 -14.1547 -37.4129 -12.2213 16.3769 -2.83221 -9.08008 5.65879 -0.0387768 -11.2229 6.98217 0.0831122 -9.23505 7.40792 -3.3564 -12.8859 8.13542 -0.355852 -8.98216 5.67286 -0.441877 -8.12184 5.10732 -0.19421 -12.2211 8.52521 -0.71667 -8.43174 5.8731 -0.68941 -9.10716 4.15688 0.119794 -10.2366 7.06706 -1.07915 -8.63259 5.9482 -0.993165 4.37666 9.54328 -2.53567 -1.00099 -0.669984 0.209685 3.07526 4.00959 -0.947285 1.96482 -0.744583 -8.29644 -9.82654 23.5068 -22.7159 53.3431 8.47736 83.2654 -28.1398 -13.925 41.4881 4.70884 8.26435 4.61938 -0.0288739 -0.245979 0.281856 1.12377 0.38425 -0.0218965 -5.19887 -1.67262 2.91525 0.0706296 -0.323999 -0.0572872 -6.44773 -2.17775 -0.276376 -11.1628 -4.38954 -1.65134 0.20041 -1.23594 -0.619267 -10.5525 -3.97211 -0.962286 -10.6145 -4.96597 -2.97506 -0.27386 -1.27531 -2.46705 -10.3549 -3.74353 -1.21777 -9.46348 10.6392 2.32319 -0.280377 0.642904 0.203288 -3.26438 7.09912 2.45146 9.62949 -40.6633 36.744 11.4037 40.0422 -4.28477 -5.83404 -26.6669 4.86135 0.000127468 -1.66405e-005 -1.88803e-005 -3.93929 -43.2266 -28.4971 -1.59198 45.025 -0.634675 0.0245657 -28.1359 -0.552721 1.49229e-005 -2.62198e-005 3.05397e-005 
-0.796693 -5.93636 14.2215 0 0 -0 -2.76406 27.0697 -0.414992 1.65614 2.49972 0.121372 3.3117 5.00192 0.170541 3.31171 5.00193 0.170542 -6.12584 22.0859 -10.5048 12.8214 13.9691 -10.5105 2.7491 3.42233 -0.175891 24.2696 15.6691 10.1361 -74.8247 8.5642 -53.1964 -2.43661 -11.3967 -35.7289 -12.2214 16.3768 -2.8321 -9.08005 5.65885 -0.038638 -11.2228 6.98222 0.083084 -9.23501 7.40793 -3.35635 -12.8858 8.13555 -0.355761 -8.98217 5.67282 -0.44197 -8.12178 5.10731 -0.19414 -12.2211 8.52528 -0.716641 -8.43178 5.87305 -0.68951 -9.10711 4.1569 0.119872 -10.2366 7.06714 -1.07911 -8.63259 5.94818 -0.993197 4.37665 9.54333 -2.53563 -1.00099 -0.669931 0.209676 3.07525 4.00958 -0.94729 1.55331 -0.477091 -8.07481 -8.58221 22.1254 -25.9507 52.0441 8.40992 93.147 -29.8841 -12.056 36.1701 4.70881 8.26437 4.6195 -0.0288699 -0.245947 0.281857 1.12378 0.384214 -0.0218591 -5.19887 -1.67261 2.91523 0.0706204 -0.323958 -0.0574108 -6.44772 -2.17777 -0.276357 -11.1628 -4.38956 -1.65134 0.200415 -1.23592 -0.619275 -10.5525 -3.9721 -0.962279 -10.6145 -4.966 -2.97493 -0.273916 -1.27522 -2.46718 -10.3549 -3.7435 -1.21777 -9.46348 10.6392 2.32317 -0.280411 0.642841 0.203373 -3.26432 7.09922 2.45122 9.60068 -39.8742 36.5843 10.6344 39.2537 -3.82453 -5.32056 -26.5101 4.83487 5.97349e-005 -1.48803e-005 -2.2615e-005 -3.63742 -42.6209 -28.2524 -1.60737 44.2777 -0.752541 0.177431 -27.7697 -0.606903 7.41265e-006 -1.22426e-005 2.44912e-005 
